<svg width="33" height="41" viewBox="0 0 33 41" fill="none" xmlns="http://www.w3.org/2000/svg">
<path d="M1.7035 34.61C1.2225 34.61 0.818333 34.4455 0.491 34.1165C0.163666 33.7875 0 33.3813 0 32.898C0 32.4147 0.163666 32.0113 0.491 31.688C0.818333 31.365 1.2225 31.2035 1.7035 31.2035H3.8925V16.3025C3.8925 13.4332 4.7315 10.8537 6.4095 8.564C8.08717 6.27433 10.3158 4.83417 13.0955 4.2435V3.2155C13.0955 2.32217 13.407 1.563 14.03 0.937997C14.653 0.312664 15.4093 0 16.299 0C17.1887 0 17.945 0.312664 18.568 0.937997C19.191 1.563 19.5025 2.32217 19.5025 3.2155V4.2435C22.2822 4.82617 24.5128 6.26367 26.1945 8.556C27.8765 10.8483 28.7175 13.4305 28.7175 16.3025V31.2035H30.8945C31.3745 31.2035 31.7803 31.368 32.112 31.697C32.444 32.026 32.61 32.4322 32.61 32.9155C32.61 33.3988 32.444 33.802 32.112 34.125C31.7803 34.4483 31.3745 34.61 30.8945 34.61H1.7035ZM16.305 40.7175C15.1773 40.7175 14.2118 40.3153 13.4085 39.511C12.6052 38.7067 12.2035 37.7397 12.2035 36.61H20.4065C20.4065 37.7417 20.004 38.7092 19.199 39.5125C18.394 40.3158 17.4293 40.7175 16.305 40.7175ZM7.299 31.2035H25.299V16.3025C25.299 13.8105 24.424 11.6875 22.674 9.9335C20.924 8.1795 18.799 7.3025 16.299 7.3025C13.799 7.3025 11.674 8.1795 9.924 9.9335C8.174 11.6875 7.299 13.8105 7.299 16.3025V31.2035Z" fill="white"/>
</svg>
